<svg xmlns="http://www.w3.org/2000/svg" width="1200" height="760" viewBox="0 0 1200 760">
<rect width="100%" height="100%" fill="#081122"/>
<defs><marker id="arrow" markerWidth="10" markerHeight="10" refX="8" refY="3" orient="auto"><path d="M0,0 L0,6 L9,3 z" fill="#556278"/></marker></defs>
<circle cx="40" cy="40" r="1.3" fill="#556278" opacity="0.22"/>
<circle cx="40" cy="80" r="1.3" fill="#556278" opacity="0.22"/>
<circle cx="40" cy="120" r="1.3" fill="#556278" opacity="0.22"/>
<circle cx="40" cy="160" r="1.3" fill="#556278" opacity="0.22"/>
<circle cx="40" cy="200" r="1.3" fill="#556278" opacity="0.22"/>
<circle cx="40" cy="240" r="1.3" fill="#556278" opacity="0.22"/>
<circle cx="40" cy="280" r="1.3" fill="#556278" opacity="0.22"/>
<circle cx="40" cy="320" r="1.3" fill="#556278" opacity="0.22"/>
<circle cx="40" cy="360" r="1.3" fill="#556278" opacity="0.22"/>
<circle cx="40" cy="400" r="1.3" fill="#556278" opacity="0.22"/>
<circle cx="40" cy="440" r="1.3" fill="#556278" opacity="0.22"/>
<circle cx="40" cy="480" r="1.3" fill="#556278" opacity="0.22"/>
<circle cx="40" cy="520" r="1.3" fill="#556278" opacity="0.22"/>
<circle cx="40" cy="560" r="1.3" fill="#556278" opacity="0.22"/>
<circle cx="40" cy="600" r="1.3" fill="#556278" opacity="0.22"/>
<circle cx="40" cy="640" r="1.3" fill="#556278" opacity="0.22"/>
<circle cx="40" cy="680" r="1.3" fill="#556278" opacity="0.22"/>
<circle cx="40" cy="720" r="1.3" fill="#556278" opacity="0.22"/>
<circle cx="80" cy="40" r="1.3" fill="#556278" opacity="0.22"/>
<circle cx="80" cy="80" r="1.3" fill="#556278" opacity="0.22"/>
<circle cx="80" cy="120" r="1.3" fill="#556278" opacity="0.22"/>
<circle cx="80" cy="160" r="1.3" fill="#556278" opacity="0.22"/>
<circle cx="80" cy="200" r="1.3" fill="#556278" opacity="0.22"/>
<circle cx="80" cy="240" r="1.3" fill="#556278" opacity="0.22"/>
<circle cx="80" cy="280" r="1.3" fill="#556278" opacity="0.22"/>
<circle cx="80" cy="320" r="1.3" fill="#556278" opacity="0.22"/>
<circle cx="80" cy="360" r="1.3" fill="#556278" opacity="0.22"/>
<circle cx="80" cy="400" r="1.3" fill="#556278" opacity="0.22"/>
<circle cx="80" cy="440" r="1.3" fill="#556278" opacity="0.22"/>
<circle cx="80" cy="480" r="1.3" fill="#556278" opacity="0.22"/>
<circle cx="80" cy="520" r="1.3" fill="#556278" opacity="0.22"/>
<circle cx="80" cy="560" r="1.3" fill="#556278" opacity="0.22"/>
<circle cx="80" cy="600" r="1.3" fill="#556278" opacity="0.22"/>
<circle cx="80" cy="640" r="1.3" fill="#556278" opacity="0.22"/>
<circle cx="80" cy="680" r="1.3" fill="#556278" opacity="0.22"/>
<circle cx="80" cy="720" r="1.3" fill="#556278" opacity="0.22"/>
<circle cx="120" cy="40" r="1.3" fill="#556278" opacity="0.22"/>
<circle cx="120" cy="80" r="1.3" fill="#556278" opacity="0.22"/>
<circle cx="120" cy="120" r="1.3" fill="#556278" opacity="0.22"/>
<circle cx="120" cy="160" r="1.3" fill="#556278" opacity="0.22"/>
<circle cx="120" cy="200" r="1.3" fill="#556278" opacity="0.22"/>
<circle cx="120" cy="240" r="1.3" fill="#556278" opacity="0.22"/>
<circle cx="120" cy="280" r="1.3" fill="#556278" opacity="0.22"/>
<circle cx="120" cy="320" r="1.3" fill="#556278" opacity="0.22"/>
<circle cx="120" cy="360" r="1.3" fill="#556278" opacity="0.22"/>
<circle cx="120" cy="400" r="1.3" fill="#556278" opacity="0.22"/>
<circle cx="120" cy="440" r="1.3" fill="#556278" opacity="0.22"/>
<circle cx="120" cy="480" r="1.3" fill="#556278" opacity="0.22"/>
<circle cx="120" cy="520" r="1.3" fill="#556278" opacity="0.22"/>
<circle cx="120" cy="560" r="1.3" fill="#556278" opacity="0.22"/>
<circle cx="120" cy="600" r="1.3" fill="#556278" opacity="0.22"/>
<circle cx="120" cy="640" r="1.3" fill="#556278" opacity="0.22"/>
<circle cx="120" cy="680" r="1.3" fill="#556278" opacity="0.22"/>
<circle cx="120" cy="720" r="1.3" fill="#556278" opacity="0.22"/>
<circle cx="160" cy="40" r="1.3" fill="#556278" opacity="0.22"/>
<circle cx="160" cy="80" r="1.3" fill="#556278" opacity="0.22"/>
<circle cx="160" cy="120" r="1.3" fill="#556278" opacity="0.22"/>
<circle cx="160" cy="160" r="1.3" fill="#556278" opacity="0.22"/>
<circle cx="160" cy="200" r="1.3" fill="#556278" opacity="0.22"/>
<circle cx="160" cy="240" r="1.3" fill="#556278" opacity="0.22"/>
<circle cx="160" cy="280" r="1.3" fill="#556278" opacity="0.22"/>
<circle cx="160" cy="320" r="1.3" fill="#556278" opacity="0.22"/>
<circle cx="160" cy="360" r="1.3" fill="#556278" opacity="0.22"/>
<circle cx="160" cy="400" r="1.3" fill="#556278" opacity="0.22"/>
<circle cx="160" cy="440" r="1.3" fill="#556278" opacity="0.22"/>
<circle cx="160" cy="480" r="1.3" fill="#556278" opacity="0.22"/>
<circle cx="160" cy="520" r="1.3" fill="#556278" opacity="0.22"/>
<circle cx="160" cy="560" r="1.3" fill="#556278" opacity="0.22"/>
<circle cx="160" cy="600" r="1.3" fill="#556278" opacity="0.22"/>
<circle cx="160" cy="640" r="1.3" fill="#556278" opacity="0.22"/>
<circle cx="160" cy="680" r="1.3" fill="#556278" opacity="0.22"/>
<circle cx="160" cy="720" r="1.3" fill="#556278" opacity="0.22"/>
<circle cx="200" cy="40" r="1.3" fill="#556278" opacity="0.22"/>
<circle cx="200" cy="80" r="1.3" fill="#556278" opacity="0.22"/>
<circle cx="200" cy="120" r="1.3" fill="#556278" opacity="0.22"/>
<circle cx="200" cy="160" r="1.3" fill="#556278" opacity="0.22"/>
<circle cx="200" cy="200" r="1.3" fill="#556278" opacity="0.22"/>
<circle cx="200" cy="240" r="1.3" fill="#556278" opacity="0.22"/>
<circle cx="200" cy="280" r="1.3" fill="#556278" opacity="0.22"/>
<circle cx="200" cy="320" r="1.3" fill="#556278" opacity="0.22"/>
<circle cx="200" cy="360" r="1.3" fill="#556278" opacity="0.22"/>
<circle cx="200" cy="400" r="1.3" fill="#556278" opacity="0.22"/>
<circle cx="200" cy="440" r="1.3" fill="#556278" opacity="0.22"/>
<circle cx="200" cy="480" r="1.3" fill="#556278" opacity="0.22"/>
<circle cx="200" cy="520" r="1.3" fill="#556278" opacity="0.22"/>
<circle cx="200" cy="560" r="1.3" fill="#556278" opacity="0.22"/>
<circle cx="200" cy="600" r="1.3" fill="#556278" opacity="0.22"/>
<circle cx="200" cy="640" r="1.3" fill="#556278" opacity="0.22"/>
<circle cx="200" cy="680" r="1.3" fill="#556278" opacity="0.22"/>
<circle cx="200" cy="720" r="1.3" fill="#556278" opacity="0.22"/>
<circle cx="240" cy="40" r="1.3" fill="#556278" opacity="0.22"/>
<circle cx="240" cy="80" r="1.3" fill="#556278" opacity="0.22"/>
<circle cx="240" cy="120" r="1.3" fill="#556278" opacity="0.22"/>
<circle cx="240" cy="160" r="1.3" fill="#556278" opacity="0.22"/>
<circle cx="240" cy="200" r="1.3" fill="#556278" opacity="0.22"/>
<circle cx="240" cy="240" r="1.3" fill="#556278" opacity="0.22"/>
<circle cx="240" cy="280" r="1.3" fill="#556278" opacity="0.22"/>
<circle cx="240" cy="320" r="1.3" fill="#556278" opacity="0.22"/>
<circle cx="240" cy="360" r="1.3" fill="#556278" opacity="0.22"/>
<circle cx="240" cy="400" r="1.3" fill="#556278" opacity="0.22"/>
<circle cx="240" cy="440" r="1.3" fill="#556278" opacity="0.22"/>
<circle cx="240" cy="480" r="1.3" fill="#556278" opacity="0.22"/>
<circle cx="240" cy="520" r="1.3" fill="#556278" opacity="0.22"/>
<circle cx="240" cy="560" r="1.3" fill="#556278" opacity="0.22"/>
<circle cx="240" cy="600" r="1.3" fill="#556278" opacity="0.22"/>
<circle cx="240" cy="640" r="1.3" fill="#556278" opacity="0.22"/>
<circle cx="240" cy="680" r="1.3" fill="#556278" opacity="0.22"/>
<circle cx="240" cy="720" r="1.3" fill="#556278" opacity="0.22"/>
<circle cx="280" cy="40" r="1.3" fill="#556278" opacity="0.22"/>
<circle cx="280" cy="80" r="1.3" fill="#556278" opacity="0.22"/>
<circle cx="280" cy="120" r="1.3" fill="#556278" opacity="0.22"/>
<circle cx="280" cy="160" r="1.3" fill="#556278" opacity="0.22"/>
<circle cx="280" cy="200" r="1.3" fill="#556278" opacity="0.22"/>
<circle cx="280" cy="240" r="1.3" fill="#556278" opacity="0.22"/>
<circle cx="280" cy="280" r="1.3" fill="#556278" opacity="0.22"/>
<circle cx="280" cy="320" r="1.3" fill="#556278" opacity="0.22"/>
<circle cx="280" cy="360" r="1.3" fill="#556278" opacity="0.22"/>
<circle cx="280" cy="400" r="1.3" fill="#556278" opacity="0.22"/>
<circle cx="280" cy="440" r="1.3" fill="#556278" opacity="0.22"/>
<circle cx="280" cy="480" r="1.3" fill="#556278" opacity="0.22"/>
<circle cx="280" cy="520" r="1.3" fill="#556278" opacity="0.22"/>
<circle cx="280" cy="560" r="1.3" fill="#556278" opacity="0.22"/>
<circle cx="280" cy="600" r="1.3" fill="#556278" opacity="0.22"/>
<circle cx="280" cy="640" r="1.3" fill="#556278" opacity="0.22"/>
<circle cx="280" cy="680" r="1.3" fill="#556278" opacity="0.22"/>
<circle cx="280" cy="720" r="1.3" fill="#556278" opacity="0.22"/>
<circle cx="320" cy="40" r="1.3" fill="#556278" opacity="0.22"/>
<circle cx="320" cy="80" r="1.3" fill="#556278" opacity="0.22"/>
<circle cx="320" cy="120" r="1.3" fill="#556278" opacity="0.22"/>
<circle cx="320" cy="160" r="1.3" fill="#556278" opacity="0.22"/>
<circle cx="320" cy="200" r="1.3" fill="#556278" opacity="0.22"/>
<circle cx="320" cy="240" r="1.3" fill="#556278" opacity="0.22"/>
<circle cx="320" cy="280" r="1.3" fill="#556278" opacity="0.22"/>
<circle cx="320" cy="320" r="1.3" fill="#556278" opacity="0.22"/>
<circle cx="320" cy="360" r="1.3" fill="#556278" opacity="0.22"/>
<circle cx="320" cy="400" r="1.3" fill="#556278" opacity="0.22"/>
<circle cx="320" cy="440" r="1.3" fill="#556278" opacity="0.22"/>
<circle cx="320" cy="480" r="1.3" fill="#556278" opacity="0.22"/>
<circle cx="320" cy="520" r="1.3" fill="#556278" opacity="0.22"/>
<circle cx="320" cy="560" r="1.3" fill="#556278" opacity="0.22"/>
<circle cx="320" cy="600" r="1.3" fill="#556278" opacity="0.22"/>
<circle cx="320" cy="640" r="1.3" fill="#556278" opacity="0.22"/>
<circle cx="320" cy="680" r="1.3" fill="#556278" opacity="0.22"/>
<circle cx="320" cy="720" r="1.3" fill="#556278" opacity="0.22"/>
<circle cx="360" cy="40" r="1.3" fill="#556278" opacity="0.22"/>
<circle cx="360" cy="80" r="1.3" fill="#556278" opacity="0.22"/>
<circle cx="360" cy="120" r="1.3" fill="#556278" opacity="0.22"/>
<circle cx="360" cy="160" r="1.3" fill="#556278" opacity="0.22"/>
<circle cx="360" cy="200" r="1.3" fill="#556278" opacity="0.22"/>
<circle cx="360" cy="240" r="1.3" fill="#556278" opacity="0.22"/>
<circle cx="360" cy="280" r="1.3" fill="#556278" opacity="0.22"/>
<circle cx="360" cy="320" r="1.3" fill="#556278" opacity="0.22"/>
<circle cx="360" cy="360" r="1.3" fill="#556278" opacity="0.22"/>
<circle cx="360" cy="400" r="1.3" fill="#556278" opacity="0.22"/>
<circle cx="360" cy="440" r="1.3" fill="#556278" opacity="0.22"/>
<circle cx="360" cy="480" r="1.3" fill="#556278" opacity="0.22"/>
<circle cx="360" cy="520" r="1.3" fill="#556278" opacity="0.22"/>
<circle cx="360" cy="560" r="1.3" fill="#556278" opacity="0.22"/>
<circle cx="360" cy="600" r="1.3" fill="#556278" opacity="0.22"/>
<circle cx="360" cy="640" r="1.3" fill="#556278" opacity="0.22"/>
<circle cx="360" cy="680" r="1.3" fill="#556278" opacity="0.22"/>
<circle cx="360" cy="720" r="1.3" fill="#556278" opacity="0.22"/>
<circle cx="400" cy="40" r="1.3" fill="#556278" opacity="0.22"/>
<circle cx="400" cy="80" r="1.3" fill="#556278" opacity="0.22"/>
<circle cx="400" cy="120" r="1.3" fill="#556278" opacity="0.22"/>
<circle cx="400" cy="160" r="1.3" fill="#556278" opacity="0.22"/>
<circle cx="400" cy="200" r="1.3" fill="#556278" opacity="0.22"/>
<circle cx="400" cy="240" r="1.3" fill="#556278" opacity="0.22"/>
<circle cx="400" cy="280" r="1.3" fill="#556278" opacity="0.22"/>
<circle cx="400" cy="320" r="1.3" fill="#556278" opacity="0.22"/>
<circle cx="400" cy="360" r="1.3" fill="#556278" opacity="0.22"/>
<circle cx="400" cy="400" r="1.3" fill="#556278" opacity="0.22"/>
<circle cx="400" cy="440" r="1.3" fill="#556278" opacity="0.22"/>
<circle cx="400" cy="480" r="1.3" fill="#556278" opacity="0.22"/>
<circle cx="400" cy="520" r="1.3" fill="#556278" opacity="0.22"/>
<circle cx="400" cy="560" r="1.3" fill="#556278" opacity="0.22"/>
<circle cx="400" cy="600" r="1.3" fill="#556278" opacity="0.22"/>
<circle cx="400" cy="640" r="1.3" fill="#556278" opacity="0.22"/>
<circle cx="400" cy="680" r="1.3" fill="#556278" opacity="0.22"/>
<circle cx="400" cy="720" r="1.3" fill="#556278" opacity="0.22"/>
<circle cx="440" cy="40" r="1.3" fill="#556278" opacity="0.22"/>
<circle cx="440" cy="80" r="1.3" fill="#556278" opacity="0.22"/>
<circle cx="440" cy="120" r="1.3" fill="#556278" opacity="0.22"/>
<circle cx="440" cy="160" r="1.3" fill="#556278" opacity="0.22"/>
<circle cx="440" cy="200" r="1.3" fill="#556278" opacity="0.22"/>
<circle cx="440" cy="240" r="1.3" fill="#556278" opacity="0.22"/>
<circle cx="440" cy="280" r="1.3" fill="#556278" opacity="0.22"/>
<circle cx="440" cy="320" r="1.3" fill="#556278" opacity="0.22"/>
<circle cx="440" cy="360" r="1.3" fill="#556278" opacity="0.22"/>
<circle cx="440" cy="400" r="1.3" fill="#556278" opacity="0.22"/>
<circle cx="440" cy="440" r="1.3" fill="#556278" opacity="0.22"/>
<circle cx="440" cy="480" r="1.3" fill="#556278" opacity="0.22"/>
<circle cx="440" cy="520" r="1.3" fill="#556278" opacity="0.22"/>
<circle cx="440" cy="560" r="1.3" fill="#556278" opacity="0.22"/>
<circle cx="440" cy="600" r="1.3" fill="#556278" opacity="0.22"/>
<circle cx="440" cy="640" r="1.3" fill="#556278" opacity="0.22"/>
<circle cx="440" cy="680" r="1.3" fill="#556278" opacity="0.22"/>
<circle cx="440" cy="720" r="1.3" fill="#556278" opacity="0.22"/>
<circle cx="480" cy="40" r="1.3" fill="#556278" opacity="0.22"/>
<circle cx="480" cy="80" r="1.3" fill="#556278" opacity="0.22"/>
<circle cx="480" cy="120" r="1.3" fill="#556278" opacity="0.22"/>
<circle cx="480" cy="160" r="1.3" fill="#556278" opacity="0.22"/>
<circle cx="480" cy="200" r="1.3" fill="#556278" opacity="0.22"/>
<circle cx="480" cy="240" r="1.3" fill="#556278" opacity="0.22"/>
<circle cx="480" cy="280" r="1.3" fill="#556278" opacity="0.22"/>
<circle cx="480" cy="320" r="1.3" fill="#556278" opacity="0.22"/>
<circle cx="480" cy="360" r="1.3" fill="#556278" opacity="0.22"/>
<circle cx="480" cy="400" r="1.3" fill="#556278" opacity="0.22"/>
<circle cx="480" cy="440" r="1.3" fill="#556278" opacity="0.22"/>
<circle cx="480" cy="480" r="1.3" fill="#556278" opacity="0.22"/>
<circle cx="480" cy="520" r="1.3" fill="#556278" opacity="0.22"/>
<circle cx="480" cy="560" r="1.3" fill="#556278" opacity="0.22"/>
<circle cx="480" cy="600" r="1.3" fill="#556278" opacity="0.22"/>
<circle cx="480" cy="640" r="1.3" fill="#556278" opacity="0.22"/>
<circle cx="480" cy="680" r="1.3" fill="#556278" opacity="0.22"/>
<circle cx="480" cy="720" r="1.3" fill="#556278" opacity="0.22"/>
<circle cx="520" cy="40" r="1.3" fill="#556278" opacity="0.22"/>
<circle cx="520" cy="80" r="1.3" fill="#556278" opacity="0.22"/>
<circle cx="520" cy="120" r="1.3" fill="#556278" opacity="0.22"/>
<circle cx="520" cy="160" r="1.3" fill="#556278" opacity="0.22"/>
<circle cx="520" cy="200" r="1.3" fill="#556278" opacity="0.22"/>
<circle cx="520" cy="240" r="1.3" fill="#556278" opacity="0.22"/>
<circle cx="520" cy="280" r="1.3" fill="#556278" opacity="0.22"/>
<circle cx="520" cy="320" r="1.3" fill="#556278" opacity="0.22"/>
<circle cx="520" cy="360" r="1.3" fill="#556278" opacity="0.22"/>
<circle cx="520" cy="400" r="1.3" fill="#556278" opacity="0.22"/>
<circle cx="520" cy="440" r="1.3" fill="#556278" opacity="0.22"/>
<circle cx="520" cy="480" r="1.3" fill="#556278" opacity="0.22"/>
<circle cx="520" cy="520" r="1.3" fill="#556278" opacity="0.22"/>
<circle cx="520" cy="560" r="1.3" fill="#556278" opacity="0.22"/>
<circle cx="520" cy="600" r="1.3" fill="#556278" opacity="0.22"/>
<circle cx="520" cy="640" r="1.3" fill="#556278" opacity="0.22"/>
<circle cx="520" cy="680" r="1.3" fill="#556278" opacity="0.22"/>
<circle cx="520" cy="720" r="1.3" fill="#556278" opacity="0.22"/>
<circle cx="560" cy="40" r="1.3" fill="#556278" opacity="0.22"/>
<circle cx="560" cy="80" r="1.3" fill="#556278" opacity="0.22"/>
<circle cx="560" cy="120" r="1.3" fill="#556278" opacity="0.22"/>
<circle cx="560" cy="160" r="1.3" fill="#556278" opacity="0.22"/>
<circle cx="560" cy="200" r="1.3" fill="#556278" opacity="0.22"/>
<circle cx="560" cy="240" r="1.3" fill="#556278" opacity="0.22"/>
<circle cx="560" cy="280" r="1.3" fill="#556278" opacity="0.22"/>
<circle cx="560" cy="320" r="1.3" fill="#556278" opacity="0.22"/>
<circle cx="560" cy="360" r="1.3" fill="#556278" opacity="0.22"/>
<circle cx="560" cy="400" r="1.3" fill="#556278" opacity="0.22"/>
<circle cx="560" cy="440" r="1.3" fill="#556278" opacity="0.22"/>
<circle cx="560" cy="480" r="1.3" fill="#556278" opacity="0.22"/>
<circle cx="560" cy="520" r="1.3" fill="#556278" opacity="0.22"/>
<circle cx="560" cy="560" r="1.3" fill="#556278" opacity="0.22"/>
<circle cx="560" cy="600" r="1.3" fill="#556278" opacity="0.22"/>
<circle cx="560" cy="640" r="1.3" fill="#556278" opacity="0.22"/>
<circle cx="560" cy="680" r="1.3" fill="#556278" opacity="0.22"/>
<circle cx="560" cy="720" r="1.3" fill="#556278" opacity="0.22"/>
<circle cx="600" cy="40" r="1.3" fill="#556278" opacity="0.22"/>
<circle cx="600" cy="80" r="1.3" fill="#556278" opacity="0.22"/>
<circle cx="600" cy="120" r="1.3" fill="#556278" opacity="0.22"/>
<circle cx="600" cy="160" r="1.3" fill="#556278" opacity="0.22"/>
<circle cx="600" cy="200" r="1.3" fill="#556278" opacity="0.22"/>
<circle cx="600" cy="240" r="1.3" fill="#556278" opacity="0.22"/>
<circle cx="600" cy="280" r="1.3" fill="#556278" opacity="0.22"/>
<circle cx="600" cy="320" r="1.3" fill="#556278" opacity="0.22"/>
<circle cx="600" cy="360" r="1.3" fill="#556278" opacity="0.22"/>
<circle cx="600" cy="400" r="1.3" fill="#556278" opacity="0.22"/>
<circle cx="600" cy="440" r="1.3" fill="#556278" opacity="0.22"/>
<circle cx="600" cy="480" r="1.3" fill="#556278" opacity="0.22"/>
<circle cx="600" cy="520" r="1.3" fill="#556278" opacity="0.22"/>
<circle cx="600" cy="560" r="1.3" fill="#556278" opacity="0.22"/>
<circle cx="600" cy="600" r="1.3" fill="#556278" opacity="0.22"/>
<circle cx="600" cy="640" r="1.3" fill="#556278" opacity="0.22"/>
<circle cx="600" cy="680" r="1.3" fill="#556278" opacity="0.22"/>
<circle cx="600" cy="720" r="1.3" fill="#556278" opacity="0.22"/>
<circle cx="640" cy="40" r="1.3" fill="#556278" opacity="0.22"/>
<circle cx="640" cy="80" r="1.3" fill="#556278" opacity="0.22"/>
<circle cx="640" cy="120" r="1.3" fill="#556278" opacity="0.22"/>
<circle cx="640" cy="160" r="1.3" fill="#556278" opacity="0.22"/>
<circle cx="640" cy="200" r="1.3" fill="#556278" opacity="0.22"/>
<circle cx="640" cy="240" r="1.3" fill="#556278" opacity="0.22"/>
<circle cx="640" cy="280" r="1.3" fill="#556278" opacity="0.22"/>
<circle cx="640" cy="320" r="1.3" fill="#556278" opacity="0.22"/>
<circle cx="640" cy="360" r="1.3" fill="#556278" opacity="0.22"/>
<circle cx="640" cy="400" r="1.3" fill="#556278" opacity="0.22"/>
<circle cx="640" cy="440" r="1.3" fill="#556278" opacity="0.22"/>
<circle cx="640" cy="480" r="1.3" fill="#556278" opacity="0.22"/>
<circle cx="640" cy="520" r="1.3" fill="#556278" opacity="0.22"/>
<circle cx="640" cy="560" r="1.3" fill="#556278" opacity="0.22"/>
<circle cx="640" cy="600" r="1.3" fill="#556278" opacity="0.22"/>
<circle cx="640" cy="640" r="1.3" fill="#556278" opacity="0.22"/>
<circle cx="640" cy="680" r="1.3" fill="#556278" opacity="0.22"/>
<circle cx="640" cy="720" r="1.3" fill="#556278" opacity="0.22"/>
<circle cx="680" cy="40" r="1.3" fill="#556278" opacity="0.22"/>
<circle cx="680" cy="80" r="1.3" fill="#556278" opacity="0.22"/>
<circle cx="680" cy="120" r="1.3" fill="#556278" opacity="0.22"/>
<circle cx="680" cy="160" r="1.3" fill="#556278" opacity="0.22"/>
<circle cx="680" cy="200" r="1.3" fill="#556278" opacity="0.22"/>
<circle cx="680" cy="240" r="1.3" fill="#556278" opacity="0.22"/>
<circle cx="680" cy="280" r="1.3" fill="#556278" opacity="0.22"/>
<circle cx="680" cy="320" r="1.3" fill="#556278" opacity="0.22"/>
<circle cx="680" cy="360" r="1.3" fill="#556278" opacity="0.22"/>
<circle cx="680" cy="400" r="1.3" fill="#556278" opacity="0.22"/>
<circle cx="680" cy="440" r="1.3" fill="#556278" opacity="0.22"/>
<circle cx="680" cy="480" r="1.3" fill="#556278" opacity="0.22"/>
<circle cx="680" cy="520" r="1.3" fill="#556278" opacity="0.22"/>
<circle cx="680" cy="560" r="1.3" fill="#556278" opacity="0.22"/>
<circle cx="680" cy="600" r="1.3" fill="#556278" opacity="0.22"/>
<circle cx="680" cy="640" r="1.3" fill="#556278" opacity="0.22"/>
<circle cx="680" cy="680" r="1.3" fill="#556278" opacity="0.22"/>
<circle cx="680" cy="720" r="1.3" fill="#556278" opacity="0.22"/>
<circle cx="720" cy="40" r="1.3" fill="#556278" opacity="0.22"/>
<circle cx="720" cy="80" r="1.3" fill="#556278" opacity="0.22"/>
<circle cx="720" cy="120" r="1.3" fill="#556278" opacity="0.22"/>
<circle cx="720" cy="160" r="1.3" fill="#556278" opacity="0.22"/>
<circle cx="720" cy="200" r="1.3" fill="#556278" opacity="0.22"/>
<circle cx="720" cy="240" r="1.3" fill="#556278" opacity="0.22"/>
<circle cx="720" cy="280" r="1.3" fill="#556278" opacity="0.22"/>
<circle cx="720" cy="320" r="1.3" fill="#556278" opacity="0.22"/>
<circle cx="720" cy="360" r="1.3" fill="#556278" opacity="0.22"/>
<circle cx="720" cy="400" r="1.3" fill="#556278" opacity="0.22"/>
<circle cx="720" cy="440" r="1.3" fill="#556278" opacity="0.22"/>
<circle cx="720" cy="480" r="1.3" fill="#556278" opacity="0.22"/>
<circle cx="720" cy="520" r="1.3" fill="#556278" opacity="0.22"/>
<circle cx="720" cy="560" r="1.3" fill="#556278" opacity="0.22"/>
<circle cx="720" cy="600" r="1.3" fill="#556278" opacity="0.22"/>
<circle cx="720" cy="640" r="1.3" fill="#556278" opacity="0.22"/>
<circle cx="720" cy="680" r="1.3" fill="#556278" opacity="0.22"/>
<circle cx="720" cy="720" r="1.3" fill="#556278" opacity="0.22"/>
<circle cx="760" cy="40" r="1.3" fill="#556278" opacity="0.22"/>
<circle cx="760" cy="80" r="1.3" fill="#556278" opacity="0.22"/>
<circle cx="760" cy="120" r="1.3" fill="#556278" opacity="0.22"/>
<circle cx="760" cy="160" r="1.3" fill="#556278" opacity="0.22"/>
<circle cx="760" cy="200" r="1.3" fill="#556278" opacity="0.22"/>
<circle cx="760" cy="240" r="1.3" fill="#556278" opacity="0.22"/>
<circle cx="760" cy="280" r="1.3" fill="#556278" opacity="0.22"/>
<circle cx="760" cy="320" r="1.3" fill="#556278" opacity="0.22"/>
<circle cx="760" cy="360" r="1.3" fill="#556278" opacity="0.22"/>
<circle cx="760" cy="400" r="1.3" fill="#556278" opacity="0.22"/>
<circle cx="760" cy="440" r="1.3" fill="#556278" opacity="0.22"/>
<circle cx="760" cy="480" r="1.3" fill="#556278" opacity="0.22"/>
<circle cx="760" cy="520" r="1.3" fill="#556278" opacity="0.22"/>
<circle cx="760" cy="560" r="1.3" fill="#556278" opacity="0.22"/>
<circle cx="760" cy="600" r="1.3" fill="#556278" opacity="0.22"/>
<circle cx="760" cy="640" r="1.3" fill="#556278" opacity="0.22"/>
<circle cx="760" cy="680" r="1.3" fill="#556278" opacity="0.22"/>
<circle cx="760" cy="720" r="1.3" fill="#556278" opacity="0.22"/>
<circle cx="800" cy="40" r="1.3" fill="#556278" opacity="0.22"/>
<circle cx="800" cy="80" r="1.3" fill="#556278" opacity="0.22"/>
<circle cx="800" cy="120" r="1.3" fill="#556278" opacity="0.22"/>
<circle cx="800" cy="160" r="1.3" fill="#556278" opacity="0.22"/>
<circle cx="800" cy="200" r="1.3" fill="#556278" opacity="0.22"/>
<circle cx="800" cy="240" r="1.3" fill="#556278" opacity="0.22"/>
<circle cx="800" cy="280" r="1.3" fill="#556278" opacity="0.22"/>
<circle cx="800" cy="320" r="1.3" fill="#556278" opacity="0.22"/>
<circle cx="800" cy="360" r="1.3" fill="#556278" opacity="0.22"/>
<circle cx="800" cy="400" r="1.3" fill="#556278" opacity="0.22"/>
<circle cx="800" cy="440" r="1.3" fill="#556278" opacity="0.22"/>
<circle cx="800" cy="480" r="1.3" fill="#556278" opacity="0.22"/>
<circle cx="800" cy="520" r="1.3" fill="#556278" opacity="0.22"/>
<circle cx="800" cy="560" r="1.3" fill="#556278" opacity="0.22"/>
<circle cx="800" cy="600" r="1.3" fill="#556278" opacity="0.22"/>
<circle cx="800" cy="640" r="1.3" fill="#556278" opacity="0.22"/>
<circle cx="800" cy="680" r="1.3" fill="#556278" opacity="0.22"/>
<circle cx="800" cy="720" r="1.3" fill="#556278" opacity="0.22"/>
<circle cx="840" cy="40" r="1.3" fill="#556278" opacity="0.22"/>
<circle cx="840" cy="80" r="1.3" fill="#556278" opacity="0.22"/>
<circle cx="840" cy="120" r="1.3" fill="#556278" opacity="0.22"/>
<circle cx="840" cy="160" r="1.3" fill="#556278" opacity="0.22"/>
<circle cx="840" cy="200" r="1.3" fill="#556278" opacity="0.22"/>
<circle cx="840" cy="240" r="1.3" fill="#556278" opacity="0.22"/>
<circle cx="840" cy="280" r="1.3" fill="#556278" opacity="0.22"/>
<circle cx="840" cy="320" r="1.3" fill="#556278" opacity="0.22"/>
<circle cx="840" cy="360" r="1.3" fill="#556278" opacity="0.22"/>
<circle cx="840" cy="400" r="1.3" fill="#556278" opacity="0.22"/>
<circle cx="840" cy="440" r="1.3" fill="#556278" opacity="0.22"/>
<circle cx="840" cy="480" r="1.3" fill="#556278" opacity="0.22"/>
<circle cx="840" cy="520" r="1.3" fill="#556278" opacity="0.22"/>
<circle cx="840" cy="560" r="1.3" fill="#556278" opacity="0.22"/>
<circle cx="840" cy="600" r="1.3" fill="#556278" opacity="0.22"/>
<circle cx="840" cy="640" r="1.3" fill="#556278" opacity="0.22"/>
<circle cx="840" cy="680" r="1.3" fill="#556278" opacity="0.22"/>
<circle cx="840" cy="720" r="1.3" fill="#556278" opacity="0.22"/>
<circle cx="880" cy="40" r="1.3" fill="#556278" opacity="0.22"/>
<circle cx="880" cy="80" r="1.3" fill="#556278" opacity="0.22"/>
<circle cx="880" cy="120" r="1.3" fill="#556278" opacity="0.22"/>
<circle cx="880" cy="160" r="1.3" fill="#556278" opacity="0.22"/>
<circle cx="880" cy="200" r="1.3" fill="#556278" opacity="0.22"/>
<circle cx="880" cy="240" r="1.3" fill="#556278" opacity="0.22"/>
<circle cx="880" cy="280" r="1.3" fill="#556278" opacity="0.22"/>
<circle cx="880" cy="320" r="1.3" fill="#556278" opacity="0.22"/>
<circle cx="880" cy="360" r="1.3" fill="#556278" opacity="0.22"/>
<circle cx="880" cy="400" r="1.3" fill="#556278" opacity="0.22"/>
<circle cx="880" cy="440" r="1.3" fill="#556278" opacity="0.22"/>
<circle cx="880" cy="480" r="1.3" fill="#556278" opacity="0.22"/>
<circle cx="880" cy="520" r="1.3" fill="#556278" opacity="0.22"/>
<circle cx="880" cy="560" r="1.3" fill="#556278" opacity="0.22"/>
<circle cx="880" cy="600" r="1.3" fill="#556278" opacity="0.22"/>
<circle cx="880" cy="640" r="1.3" fill="#556278" opacity="0.22"/>
<circle cx="880" cy="680" r="1.3" fill="#556278" opacity="0.22"/>
<circle cx="880" cy="720" r="1.3" fill="#556278" opacity="0.22"/>
<circle cx="920" cy="40" r="1.3" fill="#556278" opacity="0.22"/>
<circle cx="920" cy="80" r="1.3" fill="#556278" opacity="0.22"/>
<circle cx="920" cy="120" r="1.3" fill="#556278" opacity="0.22"/>
<circle cx="920" cy="160" r="1.3" fill="#556278" opacity="0.22"/>
<circle cx="920" cy="200" r="1.3" fill="#556278" opacity="0.22"/>
<circle cx="920" cy="240" r="1.3" fill="#556278" opacity="0.22"/>
<circle cx="920" cy="280" r="1.3" fill="#556278" opacity="0.22"/>
<circle cx="920" cy="320" r="1.3" fill="#556278" opacity="0.22"/>
<circle cx="920" cy="360" r="1.3" fill="#556278" opacity="0.22"/>
<circle cx="920" cy="400" r="1.3" fill="#556278" opacity="0.22"/>
<circle cx="920" cy="440" r="1.3" fill="#556278" opacity="0.22"/>
<circle cx="920" cy="480" r="1.3" fill="#556278" opacity="0.22"/>
<circle cx="920" cy="520" r="1.3" fill="#556278" opacity="0.22"/>
<circle cx="920" cy="560" r="1.3" fill="#556278" opacity="0.22"/>
<circle cx="920" cy="600" r="1.3" fill="#556278" opacity="0.22"/>
<circle cx="920" cy="640" r="1.3" fill="#556278" opacity="0.22"/>
<circle cx="920" cy="680" r="1.3" fill="#556278" opacity="0.22"/>
<circle cx="920" cy="720" r="1.3" fill="#556278" opacity="0.22"/>
<circle cx="960" cy="40" r="1.3" fill="#556278" opacity="0.22"/>
<circle cx="960" cy="80" r="1.3" fill="#556278" opacity="0.22"/>
<circle cx="960" cy="120" r="1.3" fill="#556278" opacity="0.22"/>
<circle cx="960" cy="160" r="1.3" fill="#556278" opacity="0.22"/>
<circle cx="960" cy="200" r="1.3" fill="#556278" opacity="0.22"/>
<circle cx="960" cy="240" r="1.3" fill="#556278" opacity="0.22"/>
<circle cx="960" cy="280" r="1.3" fill="#556278" opacity="0.22"/>
<circle cx="960" cy="320" r="1.3" fill="#556278" opacity="0.22"/>
<circle cx="960" cy="360" r="1.3" fill="#556278" opacity="0.22"/>
<circle cx="960" cy="400" r="1.3" fill="#556278" opacity="0.22"/>
<circle cx="960" cy="440" r="1.3" fill="#556278" opacity="0.22"/>
<circle cx="960" cy="480" r="1.3" fill="#556278" opacity="0.22"/>
<circle cx="960" cy="520" r="1.3" fill="#556278" opacity="0.22"/>
<circle cx="960" cy="560" r="1.3" fill="#556278" opacity="0.22"/>
<circle cx="960" cy="600" r="1.3" fill="#556278" opacity="0.22"/>
<circle cx="960" cy="640" r="1.3" fill="#556278" opacity="0.22"/>
<circle cx="960" cy="680" r="1.3" fill="#556278" opacity="0.22"/>
<circle cx="960" cy="720" r="1.3" fill="#556278" opacity="0.22"/>
<circle cx="1000" cy="40" r="1.3" fill="#556278" opacity="0.22"/>
<circle cx="1000" cy="80" r="1.3" fill="#556278" opacity="0.22"/>
<circle cx="1000" cy="120" r="1.3" fill="#556278" opacity="0.22"/>
<circle cx="1000" cy="160" r="1.3" fill="#556278" opacity="0.22"/>
<circle cx="1000" cy="200" r="1.3" fill="#556278" opacity="0.22"/>
<circle cx="1000" cy="240" r="1.3" fill="#556278" opacity="0.22"/>
<circle cx="1000" cy="280" r="1.3" fill="#556278" opacity="0.22"/>
<circle cx="1000" cy="320" r="1.3" fill="#556278" opacity="0.22"/>
<circle cx="1000" cy="360" r="1.3" fill="#556278" opacity="0.22"/>
<circle cx="1000" cy="400" r="1.3" fill="#556278" opacity="0.22"/>
<circle cx="1000" cy="440" r="1.3" fill="#556278" opacity="0.22"/>
<circle cx="1000" cy="480" r="1.3" fill="#556278" opacity="0.22"/>
<circle cx="1000" cy="520" r="1.3" fill="#556278" opacity="0.22"/>
<circle cx="1000" cy="560" r="1.3" fill="#556278" opacity="0.22"/>
<circle cx="1000" cy="600" r="1.3" fill="#556278" opacity="0.22"/>
<circle cx="1000" cy="640" r="1.3" fill="#556278" opacity="0.22"/>
<circle cx="1000" cy="680" r="1.3" fill="#556278" opacity="0.22"/>
<circle cx="1000" cy="720" r="1.3" fill="#556278" opacity="0.22"/>
<circle cx="1040" cy="40" r="1.3" fill="#556278" opacity="0.22"/>
<circle cx="1040" cy="80" r="1.3" fill="#556278" opacity="0.22"/>
<circle cx="1040" cy="120" r="1.3" fill="#556278" opacity="0.22"/>
<circle cx="1040" cy="160" r="1.3" fill="#556278" opacity="0.22"/>
<circle cx="1040" cy="200" r="1.3" fill="#556278" opacity="0.22"/>
<circle cx="1040" cy="240" r="1.3" fill="#556278" opacity="0.22"/>
<circle cx="1040" cy="280" r="1.3" fill="#556278" opacity="0.22"/>
<circle cx="1040" cy="320" r="1.3" fill="#556278" opacity="0.22"/>
<circle cx="1040" cy="360" r="1.3" fill="#556278" opacity="0.22"/>
<circle cx="1040" cy="400" r="1.3" fill="#556278" opacity="0.22"/>
<circle cx="1040" cy="440" r="1.3" fill="#556278" opacity="0.22"/>
<circle cx="1040" cy="480" r="1.3" fill="#556278" opacity="0.22"/>
<circle cx="1040" cy="520" r="1.3" fill="#556278" opacity="0.22"/>
<circle cx="1040" cy="560" r="1.3" fill="#556278" opacity="0.22"/>
<circle cx="1040" cy="600" r="1.3" fill="#556278" opacity="0.22"/>
<circle cx="1040" cy="640" r="1.3" fill="#556278" opacity="0.22"/>
<circle cx="1040" cy="680" r="1.3" fill="#556278" opacity="0.22"/>
<circle cx="1040" cy="720" r="1.3" fill="#556278" opacity="0.22"/>
<circle cx="1080" cy="40" r="1.3" fill="#556278" opacity="0.22"/>
<circle cx="1080" cy="80" r="1.3" fill="#556278" opacity="0.22"/>
<circle cx="1080" cy="120" r="1.3" fill="#556278" opacity="0.22"/>
<circle cx="1080" cy="160" r="1.3" fill="#556278" opacity="0.22"/>
<circle cx="1080" cy="200" r="1.3" fill="#556278" opacity="0.22"/>
<circle cx="1080" cy="240" r="1.3" fill="#556278" opacity="0.22"/>
<circle cx="1080" cy="280" r="1.3" fill="#556278" opacity="0.22"/>
<circle cx="1080" cy="320" r="1.3" fill="#556278" opacity="0.22"/>
<circle cx="1080" cy="360" r="1.3" fill="#556278" opacity="0.22"/>
<circle cx="1080" cy="400" r="1.3" fill="#556278" opacity="0.22"/>
<circle cx="1080" cy="440" r="1.3" fill="#556278" opacity="0.22"/>
<circle cx="1080" cy="480" r="1.3" fill="#556278" opacity="0.22"/>
<circle cx="1080" cy="520" r="1.3" fill="#556278" opacity="0.22"/>
<circle cx="1080" cy="560" r="1.3" fill="#556278" opacity="0.22"/>
<circle cx="1080" cy="600" r="1.3" fill="#556278" opacity="0.22"/>
<circle cx="1080" cy="640" r="1.3" fill="#556278" opacity="0.22"/>
<circle cx="1080" cy="680" r="1.3" fill="#556278" opacity="0.22"/>
<circle cx="1080" cy="720" r="1.3" fill="#556278" opacity="0.22"/>
<circle cx="1120" cy="40" r="1.3" fill="#556278" opacity="0.22"/>
<circle cx="1120" cy="80" r="1.3" fill="#556278" opacity="0.22"/>
<circle cx="1120" cy="120" r="1.3" fill="#556278" opacity="0.22"/>
<circle cx="1120" cy="160" r="1.3" fill="#556278" opacity="0.22"/>
<circle cx="1120" cy="200" r="1.3" fill="#556278" opacity="0.22"/>
<circle cx="1120" cy="240" r="1.3" fill="#556278" opacity="0.22"/>
<circle cx="1120" cy="280" r="1.3" fill="#556278" opacity="0.22"/>
<circle cx="1120" cy="320" r="1.3" fill="#556278" opacity="0.22"/>
<circle cx="1120" cy="360" r="1.3" fill="#556278" opacity="0.22"/>
<circle cx="1120" cy="400" r="1.3" fill="#556278" opacity="0.22"/>
<circle cx="1120" cy="440" r="1.3" fill="#556278" opacity="0.22"/>
<circle cx="1120" cy="480" r="1.3" fill="#556278" opacity="0.22"/>
<circle cx="1120" cy="520" r="1.3" fill="#556278" opacity="0.22"/>
<circle cx="1120" cy="560" r="1.3" fill="#556278" opacity="0.22"/>
<circle cx="1120" cy="600" r="1.3" fill="#556278" opacity="0.22"/>
<circle cx="1120" cy="640" r="1.3" fill="#556278" opacity="0.22"/>
<circle cx="1120" cy="680" r="1.3" fill="#556278" opacity="0.22"/>
<circle cx="1120" cy="720" r="1.3" fill="#556278" opacity="0.22"/>
<circle cx="1160" cy="40" r="1.3" fill="#556278" opacity="0.22"/>
<circle cx="1160" cy="80" r="1.3" fill="#556278" opacity="0.22"/>
<circle cx="1160" cy="120" r="1.3" fill="#556278" opacity="0.22"/>
<circle cx="1160" cy="160" r="1.3" fill="#556278" opacity="0.22"/>
<circle cx="1160" cy="200" r="1.3" fill="#556278" opacity="0.22"/>
<circle cx="1160" cy="240" r="1.3" fill="#556278" opacity="0.22"/>
<circle cx="1160" cy="280" r="1.3" fill="#556278" opacity="0.22"/>
<circle cx="1160" cy="320" r="1.3" fill="#556278" opacity="0.22"/>
<circle cx="1160" cy="360" r="1.3" fill="#556278" opacity="0.22"/>
<circle cx="1160" cy="400" r="1.3" fill="#556278" opacity="0.22"/>
<circle cx="1160" cy="440" r="1.3" fill="#556278" opacity="0.22"/>
<circle cx="1160" cy="480" r="1.3" fill="#556278" opacity="0.22"/>
<circle cx="1160" cy="520" r="1.3" fill="#556278" opacity="0.22"/>
<circle cx="1160" cy="560" r="1.3" fill="#556278" opacity="0.22"/>
<circle cx="1160" cy="600" r="1.3" fill="#556278" opacity="0.22"/>
<circle cx="1160" cy="640" r="1.3" fill="#556278" opacity="0.22"/>
<circle cx="1160" cy="680" r="1.3" fill="#556278" opacity="0.22"/>
<circle cx="1160" cy="720" r="1.3" fill="#556278" opacity="0.22"/>
<text x="80" y="110" font-family="Inter, Arial, sans-serif" font-size="64" font-weight="800" fill="white" text-anchor="start">CONTINUITY</text>
<text x="82" y="155" font-family="Inter, Arial, sans-serif" font-size="28" font-weight="500" fill="#BFD7F0" text-anchor="start">The runtime ends. The state remains.</text>
<line x1="250" y1="420" x2="950" y2="420" stroke="#8BDFFF" stroke-width="5"/>
<circle cx="300" cy="420" r="18" fill="#18D2C3" stroke="#E8FFFF" stroke-width="3"/>
<circle cx="450" cy="420" r="18" fill="#18D2C3" stroke="#E8FFFF" stroke-width="3"/>
<circle cx="750" cy="420" r="18" fill="#18D2C3" stroke="#E8FFFF" stroke-width="3"/>
<circle cx="900" cy="420" r="18" fill="#18D2C3" stroke="#E8FFFF" stroke-width="3"/>
<rect x="540" y="335" width="120" height="150" rx="4" fill="#BFEFFF" stroke="#18D2C3" stroke-width="3"/>
<text x="600" y="515" font-family="IBM Plex Mono, Consolas, monospace" font-size="30" font-weight="700" fill="white" text-anchor="middle">STATE.md</text>
<circle cx="600" cy="410" r="100" fill="none" stroke="#18D2C3" stroke-width="2" opacity="0.45"/>
<circle cx="600" cy="410" r="165" fill="none" stroke="#18D2C3" stroke-width="2" opacity="0.25"/>
<circle cx="600" cy="410" r="230" fill="none" stroke="#18D2C3" stroke-width="2" opacity="0.16"/>
</svg>