<svg xmlns="http://www.w3.org/2000/svg" width="1200" height="760" viewBox="0 0 1200 760">
<rect width="100%" height="100%" fill="white"/>
<defs><marker id="arrow" markerWidth="10" markerHeight="10" refX="8" refY="3" orient="auto"><path d="M0,0 L0,6 L9,3 z" fill="#556278"/></marker></defs>
<text x="80" y="80" font-family="Inter, Arial, sans-serif" font-size="42" font-weight="700" fill="#111827" text-anchor="start">The monolith vs. the mesh</text>
<text x="250" y="145" font-family="Inter, Arial, sans-serif" font-size="28" font-weight="700" fill="#111827" text-anchor="middle">Single-file monolith</text>
<rect x="95" y="190" width="310" height="220" rx="8" fill="#FFF0F0" stroke="#FF6A5B" stroke-width="3"/>
<text x="250" y="260" font-family="IBM Plex Mono, Consolas, monospace" font-size="28" font-weight="700" fill="#111827" text-anchor="middle">AGENTS.md</text>
<text x="250" y="315" font-family="Inter, Arial, sans-serif" font-size="23" font-weight="400" fill="#111827" text-anchor="middle">policy + state + tasks</text>
<text x="250" y="350" font-family="Inter, Arial, sans-serif" font-size="23" font-weight="400" fill="#111827" text-anchor="middle">history + memory</text>
<text x="850" y="145" font-family="Inter, Arial, sans-serif" font-size="28" font-weight="700" fill="#111827" text-anchor="middle">CONTINUITY mesh</text>
<rect x="640" y="185" width="160" height="70" rx="8" fill="#EAF7FF" stroke="#111827" stroke-width="2"/>
<text x="720" y="228" font-family="IBM Plex Mono, Consolas, monospace" font-size="22" font-weight="600" fill="#111827" text-anchor="middle">AGENTS.md</text>
<rect x="770" y="280" width="160" height="70" rx="8" fill="#E8FAF9" stroke="#111827" stroke-width="2"/>
<text x="850" y="323" font-family="IBM Plex Mono, Consolas, monospace" font-size="22" font-weight="600" fill="#111827" text-anchor="middle">STATE.md</text>
<rect x="900" y="185" width="160" height="70" rx="8" fill="#FFF7E6" stroke="#111827" stroke-width="2"/>
<text x="980" y="228" font-family="IBM Plex Mono, Consolas, monospace" font-size="22" font-weight="600" fill="#111827" text-anchor="middle">TODO.md</text>
<rect x="640" y="385" width="160" height="70" rx="8" fill="#EAF7FF" stroke="#111827" stroke-width="2"/>
<text x="720" y="428" font-family="IBM Plex Mono, Consolas, monospace" font-size="22" font-weight="600" fill="#111827" text-anchor="middle">MEMORY.md</text>
<rect x="900" y="385" width="160" height="70" rx="8" fill="#FFF0F0" stroke="#111827" stroke-width="2"/>
<text x="980" y="428" font-family="IBM Plex Mono, Consolas, monospace" font-size="22" font-weight="600" fill="#111827" text-anchor="middle">completed/</text>
<line x1="720" y1="255" x2="850" y2="300" stroke="#556278" stroke-width="3" marker-end="url(#arrow)"/>
<line x1="980" y1="255" x2="850" y2="300" stroke="#556278" stroke-width="3" marker-end="url(#arrow)"/>
<line x1="850" y1="350" x2="980" y2="400" stroke="#556278" stroke-width="3" marker-end="url(#arrow)"/>
<line x1="980" y1="420" x2="800" y2="420" stroke="#556278" stroke-width="3" marker-end="url(#arrow)"/>
</svg>