<svg xmlns="http://www.w3.org/2000/svg" width="1200" height="760" viewBox="0 0 1200 760">
<rect width="100%" height="100%" fill="white"/>
<defs><marker id="arrow" markerWidth="10" markerHeight="10" refX="8" refY="3" orient="auto"><path d="M0,0 L0,6 L9,3 z" fill="#556278"/></marker></defs>
<text x="80" y="80" font-family="Inter, Arial, sans-serif" font-size="42" font-weight="700" fill="#111827" text-anchor="start">Scoped state resolution</text>
<rect x="450" y="100" width="300" height="80" rx="8" fill="#E8FAF9" stroke="#18D2C3" stroke-width="4"/>
<text x="600" y="148" font-family="IBM Plex Mono, Consolas, monospace" font-size="26" font-weight="600" fill="#111827" text-anchor="middle">root/STATE.md</text>
<rect x="110" y="260" width="300" height="80" rx="8" fill="#F4F6F9" stroke="#D9E2EF" stroke-width="2"/>
<text x="260" y="308" font-family="IBM Plex Mono, Consolas, monospace" font-size="26" font-weight="600" fill="#9AA8B8" text-anchor="middle">project-a/STATE.md</text>
<rect x="450" y="260" width="300" height="80" rx="8" fill="#E8FAF9" stroke="#18D2C3" stroke-width="4"/>
<text x="600" y="308" font-family="IBM Plex Mono, Consolas, monospace" font-size="26" font-weight="600" fill="#111827" text-anchor="middle">subsystem/STATE.md</text>
<rect x="790" y="260" width="300" height="80" rx="8" fill="#F4F6F9" stroke="#D9E2EF" stroke-width="2"/>
<text x="940" y="308" font-family="IBM Plex Mono, Consolas, monospace" font-size="26" font-weight="600" fill="#9AA8B8" text-anchor="middle">project-b/STATE.md</text>
<rect x="450" y="430" width="300" height="80" rx="8" fill="#E8FAF9" stroke="#18D2C3" stroke-width="4"/>
<text x="600" y="478" font-family="IBM Plex Mono, Consolas, monospace" font-size="26" font-weight="600" fill="#111827" text-anchor="middle">task-42/STATE.md</text>
<line x1="600" y1="180" x2="260" y2="260" stroke="#D9E2EF" stroke-width="5"/>
<line x1="600" y1="180" x2="600" y2="260" stroke="#2EA8FF" stroke-width="5"/>
<line x1="600" y1="180" x2="940" y2="260" stroke="#D9E2EF" stroke-width="5"/>
<line x1="600" y1="340" x2="600" y2="430" stroke="#2EA8FF" stroke-width="5"/>
<text x="600" y="620" font-family="Inter, Arial, sans-serif" font-size="27" font-weight="500" fill="#111827" text-anchor="middle">Load the nearest sufficient state chain. Do not load the whole tree.</text>
</svg>